<svg width="430" height="416" viewBox="0 0 430 416" fill="none" xmlns="http://www.w3.org/2000/svg">
<path d="M217.692 50.5441C217.53 53.2021 219.421 55.4806 221.916 55.6333C224.411 55.786 226.565 53.7552 226.728 51.0973C226.89 48.4393 224.999 46.1608 222.504 46.0081C220.009 45.8553 217.855 47.8862 217.692 50.5441Z" fill="white"/>
<path d="M168.03 158.197C167.529 165.916 173.376 172.533 181.091 172.977C188.806 173.42 195.466 167.522 195.97 159.803C196.471 152.084 190.624 145.467 182.909 145.023C175.194 144.58 168.534 150.478 168.03 158.197Z" fill="white"/>
<path d="M134.013 173.656C133.798 176.964 136.304 179.8 139.61 179.99C142.917 180.18 145.771 177.652 145.987 174.344C146.202 171.036 143.696 168.2 140.39 168.01C137.083 167.82 134.229 170.348 134.013 173.656Z" fill="white"/>
<path d="M162.009 104.77C161.865 106.976 163.536 108.867 165.74 108.993C167.944 109.12 169.847 107.435 169.991 105.23C170.135 103.024 168.464 101.133 166.26 101.007C164.056 100.88 162.153 102.565 162.009 104.77Z" fill="white"/>
<path d="M106.009 126.77C105.865 128.976 107.536 130.867 109.74 130.993C111.944 131.12 113.847 129.435 113.991 127.23C114.135 125.024 112.464 123.133 110.26 123.007C108.056 122.88 106.153 124.565 106.009 126.77Z" fill="white"/>
<path d="M148.061 74.5137C149.462 74.0955 150.908 73.7858 152.399 73.585C156.594 73.0218 160.816 72.704 165.064 72.6315C165.32 72.6274 165.562 72.6555 165.805 72.6835C166.147 72.7232 166.488 72.7626 166.861 72.7105C166.939 72.6996 167.018 72.7047 167.094 72.7256C167.131 72.7358 167.167 72.7496 167.201 72.7669C167.237 72.785 167.272 72.8069 167.303 72.8322C167.365 72.8816 167.416 72.9432 167.454 73.0131C167.492 73.0831 167.515 73.16 167.522 73.2392C167.695 75.3486 166.925 77.4729 165.972 79.2661C164.195 82.632 162.581 86.1248 161.13 89.7442C160.543 91.2115 158.944 91.908 157.562 92.3872C154.12 93.5827 151.001 94.826 148.204 96.117C147.182 96.5913 146.422 97.4015 146.096 98.4834C145.588 100.178 144.299 104.362 142.542 105.098C134.951 108.276 127.487 111.494 120.149 114.751C117.809 115.794 114.769 115.809 114.117 112.741C113.443 109.543 113.984 106.704 115.741 104.224C117.788 101.335 119.981 98.8078 122.321 96.6407C125.687 93.5185 129.576 91.8636 133.801 90.258C134.838 89.8661 135.767 89.3655 136.59 88.7562C138.253 87.5261 139.107 84.4879 139.561 82.5415C139.631 82.2436 139.74 82.0708 139.855 81.8889C139.927 81.7752 140.001 81.6579 140.07 81.504C140.158 81.3064 140.111 81.1533 139.926 81.0446L138.194 80.0368C138.078 79.9701 137.946 79.9367 137.813 79.9402C137.68 79.9437 137.55 79.9839 137.439 80.0566C122.352 89.8611 109.093 101.421 97.6617 114.737C96.9147 115.603 96.0937 116.396 95.1987 117.118C95.1016 117.195 94.9839 117.241 94.8604 117.251C94.737 117.261 94.6133 117.234 94.505 117.174C94.3968 117.114 94.3088 117.023 94.2522 116.913C94.1956 116.802 94.1728 116.678 94.1869 116.554C94.2428 116.097 94.3991 115.662 94.6558 115.25C97.326 110.977 100.687 107.455 104.211 103.839C113.13 94.6794 122.538 86.7258 133.155 79.9677C133.984 79.4407 134.823 78.8429 135.672 78.1744C135.833 78.0492 135.879 77.8911 135.81 77.7001C134.423 73.8023 136.007 69.8946 140.015 68.9906C142.641 68.3978 144.744 69.1602 146.323 71.2779C146.435 71.4294 146.568 71.4525 146.723 71.3471C147.769 70.6357 148.803 70.0116 149.823 69.4747C157.822 65.2756 166.306 61.9887 175.276 59.6142C175.51 59.5516 175.65 59.4001 175.696 59.1597C175.768 58.7743 175.842 58.3791 175.918 57.974C176.319 55.7707 177.599 54.3644 179.758 53.7552C184.289 52.4806 188.025 56.0425 186.9 60.6269C186.303 63.0624 183.845 64.8853 181.332 64.8755C179.345 64.8689 177.698 63.9846 176.392 62.2226C176.339 62.1499 176.266 62.0949 176.183 62.0649C176.099 62.0349 176.008 62.0313 175.923 62.0546C166.515 64.5939 157.164 68.3434 147.868 73.3034C147.631 73.4285 147.542 73.6228 147.601 73.8863L147.705 74.3062C147.748 74.5038 147.866 74.573 148.061 74.5137Z" fill="white"/>
<path d="M223.046 83.2787C222.855 83.2494 222.659 83.2343 222.46 83.2343C220.334 83.2343 218.611 84.9588 218.611 87.0861C218.611 89.2134 220.334 90.9379 222.46 90.9379C223.778 90.9379 224.942 90.2742 225.635 89.2624C238.237 92.5109 250.818 95.4545 263.379 98.0931C264.532 98.3352 265.251 100.033 265.74 101.189L265.741 101.191L265.747 101.206L265.749 101.211C265.815 101.368 265.877 101.514 265.936 101.645C268.633 107.648 271.346 113.644 274.076 119.634C273.08 120.933 272.489 122.557 272.489 124.32C272.489 126.91 273.765 129.202 275.724 130.598C275.477 130.964 275.227 131.324 274.977 131.682L274.973 131.687C274.637 132.169 274.303 132.648 273.986 133.134C270.034 139.19 266.005 145.198 261.898 151.155C261.812 151.281 261.715 151.427 261.609 151.588L261.472 151.799C261.058 152.432 260.54 153.226 260 153.866C259.888 153.856 259.775 153.851 259.661 153.851C257.535 153.851 255.812 155.576 255.812 157.703C255.812 157.926 255.831 158.146 255.868 158.359C255.857 158.367 255.846 158.375 255.836 158.383C255.824 158.391 255.813 158.399 255.802 158.406C255.778 158.423 255.754 158.438 255.73 158.454C255.641 158.512 255.551 158.57 255.467 158.664C252.19 162.351 248.442 165.629 244.823 168.794L244.821 168.796L244.816 168.8C243.834 169.659 242.862 170.509 241.911 171.357C241.111 170.842 240.158 170.542 239.136 170.542C237.063 170.542 235.278 171.772 234.468 173.542C234.075 173.382 233.696 173.24 233.33 173.114C223.238 169.64 213.729 166.055 204.802 162.36C204.775 162.349 204.751 162.335 204.728 162.318C204.703 162.3 204.68 162.278 204.661 162.254C204.624 162.207 204.599 162.152 204.589 162.093C204.579 162.034 204.584 161.974 204.604 161.918C204.624 161.861 204.658 161.811 204.703 161.772C206.694 160.006 208.885 158.562 211.277 157.439C213.936 156.191 216.404 155.037 218.681 153.976C220.877 152.954 221.751 150.301 221.504 148.078C221.254 145.795 221.039 143.539 220.858 141.31C220.65 138.805 220.734 136.31 221.825 133.904C222.302 132.85 222.768 131.792 223.222 130.728C223.357 130.415 223.472 130.423 223.567 130.752C224.114 132.673 224.795 134.744 225.611 136.967C226.276 138.769 227.121 140.587 228.148 142.421C228.528 143.093 229.283 143.271 230.004 143.231C230.052 143.228 230.1 143.214 230.142 143.189C230.183 143.163 230.218 143.128 230.244 143.086C230.252 143.072 230.26 143.057 230.266 143.041C230.278 143.011 230.285 142.98 230.286 142.949C230.289 142.9 230.28 142.851 230.26 142.807C228.845 139.671 227.528 136.313 226.307 132.734C225.626 130.725 225.152 128.6 224.885 126.361C224.874 126.263 224.836 126.171 224.776 126.094C224.743 126.052 224.705 126.016 224.662 125.986C224.644 125.973 224.625 125.962 224.606 125.952C224.585 125.941 224.564 125.931 224.542 125.923C224.45 125.889 224.35 125.881 224.252 125.9C224.155 125.918 224.065 125.963 223.992 126.03C223.485 126.491 223.079 127.028 222.773 127.64C222.545 128.092 222.328 128.544 222.113 128.99L222.109 129.001C220.543 132.255 219.109 135.237 214.955 136.048C209.792 137.051 204.195 135.169 203.306 129.414C202.954 127.122 202.846 125.027 202.98 123.13L202.981 123.121C202.981 123.116 202.981 123.11 202.982 123.105V123.094L202.981 123.083C202.981 123.076 202.98 123.069 202.98 123.063C202.977 123.026 202.969 122.99 202.956 122.955L202.951 122.942C202.949 122.936 202.946 122.929 202.943 122.923L202.933 122.903L202.926 122.89C202.924 122.885 202.921 122.88 202.918 122.876C202.902 122.85 202.883 122.826 202.862 122.805C202.821 122.762 202.771 122.728 202.715 122.706C202.686 122.694 202.656 122.685 202.624 122.68C202.597 122.676 202.569 122.674 202.541 122.675C200.61 122.764 198.583 122.945 196.46 123.219C194.703 123.443 193.186 123.319 191.91 122.848C190.37 122.276 189.885 121.246 189.386 120.186C189.032 119.435 188.671 118.668 187.922 118.037C183.998 114.732 184.062 110.854 184.146 106.19C184.235 101.138 186.273 97.3323 190.261 94.7733C191.498 93.9796 192.933 93.2221 194.565 92.5008C195.528 92.076 196.046 91.5622 196.485 90.5643C198.311 86.4343 199.838 83.5871 201.065 82.0228C201.414 81.5749 201.751 81.1121 202.077 80.6346C202.61 79.854 202.953 79.3765 203.104 79.2019C205.434 76.5013 208.186 74.3145 211.361 72.6414C215.797 70.3096 220.591 69.1454 225.744 69.1487C226.047 69.1487 226.17 69.2969 226.114 69.5933C225.246 74.071 224.223 78.6328 223.046 83.2787Z" fill="white"/>
<path d="M243.763 173.456C243.593 173.102 243.384 172.77 243.141 172.467C248.005 168.561 252.431 164.609 256.42 160.611C256.498 160.532 256.572 160.45 256.641 160.364L256.662 160.336C256.676 160.319 256.689 160.301 256.702 160.284C256.718 160.263 256.733 160.242 256.748 160.22C257.454 161.038 258.497 161.555 259.661 161.555C261.786 161.555 263.509 159.83 263.509 157.703C263.509 156.326 262.787 155.118 261.702 154.437C266.587 147.762 271.262 140.885 275.728 133.806C276.223 133.022 276.676 132.21 277.12 131.389C278.059 131.797 279.096 132.024 280.185 132.024C280.3 132.024 280.414 132.022 280.527 132.017C280.637 132.012 280.747 132.005 280.856 131.995C282.897 135.891 284.902 139.81 286.87 143.75C285.912 144.683 285.316 145.988 285.316 147.431C285.316 150.268 287.614 152.567 290.448 152.567C290.786 152.567 291.116 152.534 291.436 152.472C292.386 154.453 293.414 156.457 294.519 158.482C294.617 158.666 294.566 158.79 294.366 158.852C293.721 159.057 293.102 159.355 292.482 159.653C291.788 159.986 291.093 160.321 290.358 160.527C288.19 161.133 285.687 161.816 282.851 162.577C281.426 162.959 280.133 163.297 278.971 163.59C275.082 164.578 271.454 165.541 268.088 166.48C265.607 167.168 262.44 167.983 258.587 168.925C254.162 170.005 249.221 171.515 243.763 173.456Z" fill="white"/>
<path d="M244.267 175.678C244.267 176.287 244.161 176.871 243.967 177.413C246.703 178.36 249.495 179.335 252.343 180.337C256.469 181.793 261.175 183.904 266.459 186.67C269.841 188.442 272.392 191.283 274.907 194.084C275.141 194.346 275.375 194.606 275.61 194.866C276.594 195.956 277.869 196.452 279.435 196.353C283.482 196.093 287.375 195.788 291.113 195.439C292.515 195.307 293.977 195.362 295.501 195.602C298.436 196.06 301.113 196.595 303.531 197.208C305.92 197.814 308.321 198.341 310.712 198.866C312.961 199.359 315.2 199.851 317.411 200.404C317.444 200.412 317.48 200.41 317.512 200.399C317.545 200.388 317.574 200.368 317.595 200.341C317.605 200.329 317.613 200.316 317.619 200.302C317.627 200.285 317.633 200.266 317.635 200.247C317.637 200.224 317.636 200.201 317.63 200.179C317.627 200.168 317.623 200.157 317.618 200.147C316.364 197.674 315.081 195.258 313.768 192.9C311.258 188.388 308.571 183.39 305.708 177.906C304.941 176.437 304.157 175.025 303.354 173.668C302.639 172.458 301.955 171.242 301.268 170.019C300.271 168.246 299.266 166.457 298.142 164.647C297.154 163.053 296.266 161.395 295.476 159.672C295.42 159.544 295.325 159.445 295.19 159.376C295.002 159.274 294.924 159.33 294.953 159.544C295.049 160.255 294.746 160.733 294.045 160.976C293.117 161.302 292.196 161.686 291.281 162.128C290.35 162.582 289.412 162.928 288.468 163.165C277.744 165.869 266.688 168.751 255.299 171.81C251.545 172.82 247.908 174.008 244.253 175.297C244.256 175.337 244.259 175.377 244.261 175.417C244.262 175.45 244.264 175.483 244.265 175.515V175.54C244.266 175.563 244.266 175.586 244.267 175.608C244.267 175.632 244.267 175.655 244.267 175.678Z" fill="white"/>
<path d="M88.1624 184.82C86.7324 184.763 85.6231 183.472 85.6847 181.937C85.7463 180.402 86.9554 179.205 88.3854 179.262C89.8154 179.32 90.9247 180.611 90.8631 182.145C90.8015 183.68 89.5923 184.878 88.1624 184.82Z" fill="white"/>
<path fill-rule="evenodd" clip-rule="evenodd" d="M239.136 180.814C237.629 180.814 236.275 180.164 235.336 179.129C231.918 180.752 228.426 182.283 224.861 183.721C223.071 184.442 221.434 185.152 219.95 185.85C219.355 186.128 218.754 186.405 218.149 186.684L218.147 186.685L218.145 186.686C215.296 187.999 212.388 189.338 209.856 190.943C207.605 192.366 205.093 194.135 203.143 196.136C202.04 197.267 202.245 199.263 202.399 200.763L202.413 200.905C202.424 201.005 202.434 201.104 202.442 201.199C202.449 201.277 202.485 201.35 202.543 201.404C202.602 201.457 202.679 201.486 202.758 201.486C204.713 201.473 206.352 201.148 207.674 200.513C210.4 199.189 212.607 195.875 214.394 193.192C214.668 192.78 214.932 192.383 215.187 192.011C216.47 190.143 218.568 188.869 220.542 187.821C222.367 186.842 224.5 186.776 226.533 186.712L226.618 186.71C229.243 186.624 231.227 185.41 233.281 184.153C233.718 183.886 234.158 183.616 234.609 183.355C235.356 182.924 236.119 182.743 236.899 182.812C240.941 183.177 243.686 185.697 246.109 188.967C248.087 191.632 250.179 194.589 252.387 197.84C253.108 198.897 253.929 199.879 254.85 200.784C255.088 201.016 255.39 201.172 255.716 201.231C256.042 201.29 256.379 201.249 256.681 201.115C257.938 200.555 259.222 200.012 260.531 199.485C264.921 197.726 268.588 198.774 271.533 202.627C274.054 205.924 276.934 208.608 280.176 210.679C281.087 211.262 281.497 212.048 281.405 213.036C281.113 216.059 279.524 217.102 276.548 217.26C274.3 217.385 272.092 217.107 269.924 216.425C269.756 216.372 269.707 216.426 269.776 216.588C272.652 223.339 275.524 229.78 278.394 235.909C279.157 237.542 279.893 239.258 280.6 241.056C281.238 242.68 282.109 244.366 283.211 246.115C283.438 246.474 283.616 246.894 283.744 247.375C284.006 248.358 283.443 249.736 282.204 249.386C281.104 249.068 280.96 248.012 280.819 246.978C280.751 246.486 280.685 245.998 280.516 245.596C278.772 241.433 276.977 237.406 275.131 233.513C273.137 229.307 271.082 224.693 268.966 219.67C268.531 218.634 267.921 217.765 267.304 216.886L267.303 216.885C267.027 216.49 266.748 216.094 266.484 215.679C264.89 213.174 262.055 211.244 259.019 212.27C258.719 212.372 258.564 212.461 258.271 212.581C256.429 213.336 254.886 213.49 253.498 214.37C252.001 215.318 250.457 216.099 248.868 216.711C248.833 216.725 248.797 216.734 248.76 216.737C248.752 216.738 248.744 216.738 248.736 216.739C248.719 216.739 248.703 216.738 248.686 216.737C248.624 216.731 248.565 216.71 248.513 216.676C248.5 216.668 248.488 216.659 248.477 216.65C248.472 216.646 248.468 216.642 248.463 216.638L248.457 216.632L248.451 216.627C248.426 216.602 248.404 216.573 248.386 216.542C248.37 216.514 248.357 216.483 248.349 216.452C248.341 216.424 248.336 216.395 248.335 216.366C248.282 215.259 248.054 214.335 247.649 213.594C245.112 208.99 242.264 205.892 236.795 204.978C233.715 204.465 230.708 203.981 227.773 203.526C225.367 203.154 223.159 203.126 221.149 203.442C218.201 203.91 215.075 204.611 211.771 205.547C208.864 206.367 205.863 206.895 202.867 207.34C202.788 207.351 202.714 207.387 202.654 207.441C202.594 207.496 202.552 207.567 202.531 207.646C201.534 211.417 200.439 215.17 199.244 218.905C199.034 219.557 198.867 220.211 198.746 220.866C198.617 221.528 198.446 222.18 198.232 222.822C198.16 223.03 198.045 223.201 197.887 223.336C197.798 223.412 197.729 223.501 197.68 223.603C196.712 225.674 195.723 227.697 194.713 229.669C191.982 235.018 188.483 239.276 184.215 242.445C181.631 244.363 178.54 245.924 175.476 247.472L175.474 247.473C173.891 248.273 172.314 249.069 170.819 249.909C162.794 254.425 157.285 261.301 156.042 270.554C155.551 274.207 155.467 277.963 155.79 281.823C156.259 287.469 158.159 292.75 163.115 295.788C166.073 297.6 169.325 298.028 172.872 297.073C177.522 295.818 181.357 294.519 184.378 293.175C188.316 291.423 191.66 289.857 194.407 288.477L194.937 288.212L194.941 288.21C201.911 284.721 208.906 281.221 215.981 277.959C218.785 276.668 221.371 275.148 223.74 273.4C223.846 273.322 223.969 273.274 224.099 273.26C224.229 273.246 224.36 273.267 224.48 273.32C224.599 273.373 224.702 273.457 224.778 273.563C224.855 273.669 224.902 273.793 224.915 273.923L224.934 274.114C225.06 275.383 225.19 276.682 225.65 277.91C226.605 280.449 227.378 282.763 227.97 284.851C229.268 289.421 229.481 294.094 229.397 299.059C229.268 306.703 227.473 314.06 224.012 321.131C222.202 324.83 219.925 328.507 217.181 332.163C216.055 333.661 214.805 335.074 213.429 336.402C213.199 336.622 212.952 336.774 212.689 336.856C212.054 337.06 211.947 336.904 212.368 336.387C212.727 335.949 213.015 335.526 213.232 335.117C213.443 334.715 213.673 334.337 213.923 333.981C216.99 329.584 219.053 326.307 220.112 324.15C220.932 322.477 221.796 320.697 222.704 318.81C225.512 312.956 226.978 306.919 227.398 300.24C227.908 292.078 226.494 284.535 223.158 277.609C222.937 277.148 222.595 277.026 222.131 277.243C214.826 280.658 207.317 284.329 199.604 288.255C194.344 290.929 189.368 293.059 184.077 295.324L183.119 295.734C180.414 296.887 177.76 297.845 175.158 298.609C168.988 300.422 162.828 299.365 158.732 294.346C158.383 293.914 158.307 293.959 158.505 294.479C161.206 301.57 165.454 307.612 171.249 312.605C173.638 314.666 176.031 316.377 178.43 317.738C187.092 322.653 197.166 325.983 207.171 326.467C208.027 326.508 208.87 326.566 209.7 326.639C204.922 326.773 199.885 326.396 194.59 325.508C181.426 323.305 169.566 316.172 161.802 305.061C160.485 303.177 159.456 301.366 158.712 299.627C156.507 294.473 154.957 289.182 154.062 283.754C152.794 276.052 153.811 266.365 157.883 259.33C160.928 254.064 165.943 249.756 171.387 247.059C173.901 245.814 176.416 244.556 178.934 243.284C183.85 240.8 188.228 236.576 191.174 231.64C193.777 227.293 195.689 223.265 196.91 219.557C198.163 215.753 199.298 212.199 200.315 208.896C200.467 208.409 200.338 208.318 199.93 208.624C196.164 211.455 192.976 214.834 189.891 218.376C187.423 221.212 184.281 222.3 180.464 221.642C175.903 220.858 172.445 218.467 170.089 214.468C168.06 211.035 168.766 206.851 169.59 203.076C170.711 197.949 169.886 192.835 166.382 188.804C162.631 184.497 156.594 183.266 151.644 185.756C150.615 186.274 149.674 186.924 148.737 187.571C147.921 188.135 147.108 188.696 146.244 189.165C142.74 191.062 139.104 191.762 135.336 191.265C131.516 190.766 128.209 190.855 124.739 192.826C122.079 194.342 119.843 196.995 120.104 200.191C120.191 201.226 120.391 202.199 120.585 203.141C121.094 205.622 121.56 207.888 119.803 210.501L119.793 210.516C119.133 211.498 118.253 212.806 117.168 213.278C116.026 213.775 114.889 214.277 113.757 214.785C113.678 214.82 113.591 214.839 113.504 214.841C113.417 214.842 113.33 214.825 113.249 214.791C113.168 214.757 113.095 214.707 113.034 214.644C112.973 214.581 112.925 214.506 112.893 214.424C111.686 211.275 110.715 208.221 109.981 205.26C109.934 205.067 109.96 204.863 110.054 204.688C110.147 204.512 110.302 204.376 110.49 204.307C114.517 202.825 116.368 197.805 115.188 193.927C114.718 192.383 114.052 191.072 113.189 189.995C113.095 189.877 113.036 189.734 113.02 189.584C113.003 189.433 113.03 189.281 113.096 189.145C113.892 187.497 114.677 185.831 115.466 184.158L115.469 184.152C117.036 180.828 118.615 177.478 120.312 174.196C122.487 169.997 124.639 165.643 126.768 161.134C127.363 159.876 128.04 158.661 128.796 157.489C128.898 157.332 129.037 157.203 129.201 157.116C129.365 157.029 129.549 156.985 129.734 156.99C132.607 157.052 134.632 155.753 135.81 153.092C137.557 149.145 134.877 144.531 130.307 144.649C127.339 144.728 125.387 146.233 124.453 149.164C124.4 149.333 124.3 149.483 124.164 149.597C124.029 149.71 123.864 149.783 123.688 149.807C119.358 150.36 115.091 150.973 110.889 151.644C108.894 151.964 106.849 152.218 104.792 152.473C103.28 152.66 101.762 152.848 100.253 153.064C99.3928 150.535 96.999 148.715 94.1805 148.715C91.5151 148.715 89.2294 150.343 88.2611 152.659C85.6837 151.832 83.0885 150.815 80.4754 149.609C80.3109 149.533 80.2418 149.405 80.2681 149.224L80.6778 146.645C80.7173 146.398 80.8604 146.258 81.1072 146.225C81.5481 146.165 81.9871 146.121 82.426 146.077C83.176 146.002 83.9259 145.926 84.6856 145.771C87.5911 145.168 90.3699 144.598 93.0221 144.061C93.565 143.953 93.7904 143.625 93.6983 143.078L93.5699 142.317C93.5501 142.198 93.4908 142.089 93.402 142.008C93.3132 141.927 93.2001 141.879 93.0813 141.873C92.4364 141.827 91.8276 141.874 91.2551 142.016C87.9547 142.826 84.401 143.559 80.5939 144.214C80.403 144.247 80.2582 144.18 80.1595 144.012L79.0095 142.051C78.9353 141.925 78.8978 141.78 78.9013 141.634C78.9048 141.487 78.9491 141.344 79.0292 141.221L88.0962 127.225C88.2147 127.044 88.3775 126.985 88.5848 127.047C90.8783 127.772 92.8148 127.296 94.3942 125.62C95.1872 124.773 95.5739 123.701 95.5541 122.404C95.5196 120.176 93.7871 117.785 91.4624 117.562C89.4848 117.371 87.9629 117.979 86.8968 119.385C85.6826 120.991 85.8258 123.234 86.2255 125.145C86.2584 125.305 86.2592 125.47 86.2278 125.63C86.1965 125.79 86.1336 125.943 86.0429 126.079L77.0154 139.768C76.9833 139.816 76.934 139.849 76.8778 139.861C76.8217 139.873 76.7631 139.863 76.7144 139.833C74.6809 138.561 72.4779 138.281 70.1054 138.993C66.6109 140.037 64.5609 142.233 63.9555 145.583C63.3681 148.843 64.5823 152.232 67.3661 154.045C67.49 154.125 67.5804 154.248 67.6204 154.391C67.6604 154.534 67.6472 154.687 67.5833 154.821C66.3263 157.423 65.224 160.02 64.2763 162.612C61.826 169.318 59.7983 176.241 58.1932 183.382C55.3912 183.419 53.1312 185.704 53.1312 188.517C53.1312 191.354 55.4285 193.653 58.2623 193.653C61.0962 193.653 63.3935 191.354 63.3935 188.517C63.3935 187.576 63.1403 186.693 62.6983 185.934C63.5848 185.245 64.5271 184.586 65.5251 183.958C65.6719 183.867 65.7991 183.76 65.9067 183.637C66.5935 184.275 67.5135 184.666 68.5247 184.666C69.3129 184.666 70.0458 184.428 70.656 184.021C70.8278 184.042 70.9701 184.118 71.0827 184.249L74.1626 187.772C74.267 187.893 74.3943 187.993 74.5377 188.068L74.6081 188.104C74.0086 188.945 73.6558 189.974 73.6558 191.085C73.6558 193.922 75.9531 196.221 78.787 196.221C80.9678 196.221 82.8309 194.859 83.5737 192.939C87.9642 193.979 92.3443 194.954 96.714 195.864C98.3132 196.195 98.1552 198.097 97.0546 198.951C95.2382 200.363 93.2273 201.527 91.2239 202.687L91.2226 202.688L91.2113 202.695L91.209 202.696C89.9784 203.408 88.7506 204.119 87.573 204.885C83.6047 207.463 79.8025 209.984 76.1665 212.448C76.0186 212.548 75.8415 212.595 75.6635 212.583C75.4855 212.57 75.3168 212.498 75.1843 212.379C74.9013 212.122 74.5706 211.964 74.1922 211.905C71.6487 211.509 69.8619 212.423 68.832 214.646C68.6669 214.999 68.6009 215.376 68.5348 215.755C68.4665 216.146 68.398 216.538 68.22 216.904C68.1556 217.036 68.0543 217.146 67.9288 217.22L62.46 220.545C62.2198 220.69 62.019 220.65 61.8578 220.426L60.9743 219.206C60.8707 219.062 60.8149 218.889 60.8149 218.712C60.8149 218.535 60.8707 218.362 60.9743 218.218C63.3994 214.869 65.6797 211.597 67.8152 208.402C68.4766 207.417 69.3486 206.617 70.4312 206.001C71.981 205.117 72.6621 203.155 71.3098 201.846C70.2881 200.853 68.8616 201.041 68.2496 202.424C67.6918 203.679 67.0897 204.909 66.3543 206.055C64.0114 209.708 61.5567 213.418 58.9901 217.186C58.8256 217.426 58.6084 217.492 58.3386 217.383C51.8185 214.74 45.7772 221.785 48.8028 227.817C49.9577 230.112 51.7428 231.446 54.1581 231.818C54.2655 231.834 54.3645 231.886 54.4381 231.965C54.5118 232.044 54.5558 232.146 54.5628 232.253C55.2702 241.761 56.8168 251.085 59.2024 260.224C59.2484 260.399 59.2188 260.559 59.1135 260.703C58.9589 260.927 58.7861 261.13 58.5953 261.311C57.2528 262.609 56.8957 264.18 57.5242 266.024C59.0099 270.376 65.6435 268.835 65.2931 264.236C65.1351 262.144 64.0493 260.845 62.0355 260.338C61.8846 260.299 61.7471 260.22 61.6376 260.109C61.5281 259.999 61.4507 259.861 61.4136 259.71C60.4231 255.627 59.5824 251.572 58.8914 247.548C58.3814 244.567 57.7216 239.513 56.9122 232.386C56.8891 232.199 56.9681 232.074 57.1491 232.011C61.5074 230.524 63.0868 227.748 63.1904 223.247C63.1951 223.078 63.2401 222.912 63.3217 222.764C63.4033 222.616 63.5191 222.49 63.6594 222.397L69.0245 218.865C69.1046 218.813 69.1997 218.79 69.2946 218.799C69.3896 218.808 69.4787 218.849 69.5477 218.915C72.8497 222.042 77.5041 219.181 77.0846 214.839C77.0681 214.664 77.1323 214.526 77.2771 214.424C81.6607 211.425 86.1267 208.564 90.5984 205.699L90.5999 205.698C93.2219 204.018 95.8459 202.337 98.4563 200.626C98.4701 200.617 98.4855 200.612 98.5016 200.609C98.5177 200.607 98.5342 200.608 98.5499 200.612C98.5588 200.614 98.5673 200.618 98.5754 200.622C98.5816 200.625 98.5876 200.629 98.5931 200.633L98.5997 200.639L98.6035 200.643L98.6084 200.648L98.6105 200.65C98.6137 200.654 98.6166 200.658 98.6193 200.662C98.621 200.665 98.6226 200.668 98.6241 200.671C99.7923 202.93 101.595 204.451 104.034 205.235C104.852 205.496 105.713 205.46 106.571 205.424H106.573C106.77 205.416 106.967 205.408 107.163 205.403C107.344 205.397 107.464 205.479 107.523 205.65L110.233 213.594C110.236 213.604 110.237 213.614 110.236 213.624C110.236 213.631 110.235 213.639 110.233 213.646C110.231 213.654 110.228 213.661 110.224 213.668C110.22 213.676 110.214 213.683 110.207 213.69C110.195 213.702 110.18 213.71 110.163 213.713C110.152 213.715 110.14 213.715 110.128 213.712C110.126 213.712 110.123 213.711 110.12 213.71L110.115 213.708C109.302 213.374 108.457 212.988 107.602 212.596H107.6C105.63 211.693 103.603 210.766 101.793 210.408C93.6933 208.817 85.1841 212.897 82.5336 221.039C82.4003 221.444 82.1338 221.77 81.7637 221.977C74.3551 226.117 69.6957 232.614 69.9376 241.368C70.0462 245.181 70.5464 248.943 71.4381 252.651C75.7815 270.673 83.6293 288.576 94.414 303.643C103.955 316.972 114.947 328.749 127.898 338.679C130.251 340.481 132.755 342.134 135.247 343.778L135.252 343.782L135.256 343.785C135.903 344.212 136.55 344.638 137.192 345.067C146.066 350.995 155.745 355.895 165.592 359.927C179.498 365.628 194.241 369.107 209.821 370.365C216.47 370.904 222.931 371.22 229.515 370.82C229.94 370.793 230.203 370.574 230.305 370.163C232.634 360.901 234.874 351.678 237.022 342.493C237.295 341.327 237.599 340.228 237.935 339.196C234.857 337.771 232.722 334.652 232.722 331.035C232.722 326.071 236.742 322.047 241.702 322.047C244.886 322.047 247.682 323.706 249.277 326.207C255.248 323.421 261.292 320.57 267.411 317.654C267.376 317.412 267.357 317.164 267.357 316.911C267.357 314.075 269.655 311.776 272.489 311.776C273.132 311.776 273.748 311.894 274.315 312.111C278.157 304.142 281.961 296.048 285.551 287.85C287.321 283.815 289.038 279.996 290.703 276.393C290.963 275.837 290.958 275.284 290.689 274.734L286.858 266.859C286.605 266.339 286.668 265.858 287.046 265.416L287.53 264.858C287.905 264.42 288.201 264.469 288.418 265.006C289.435 267.519 290.621 270.1 291.977 272.748C292.076 272.935 292.178 272.939 292.283 272.757C292.711 272.02 293.079 271.308 293.388 270.623C294.784 267.55 296.245 264.585 297.771 261.726C297.81 261.653 297.85 261.58 297.889 261.506C294.919 259.155 293.013 255.515 293.013 251.43C293.013 244.744 298.12 239.251 304.642 238.646C305.383 237.007 306.125 235.373 306.868 233.745C307.294 232.81 307.679 231.843 308.065 230.874C308.497 229.79 308.93 228.702 309.425 227.649C310.158 226.088 310.8 224.594 311.35 223.168C313.975 216.361 316.402 209.739 318.63 203.304C318.784 202.856 318.638 202.556 318.191 202.405C316.841 201.947 315.489 201.588 314.133 201.328C311.845 200.885 309.701 200.298 307.55 199.709H307.548L307.529 199.705L307.508 199.698C303.319 198.551 299.102 197.396 293.754 197.267L293.361 197.257C292.366 197.232 291.446 197.208 290.825 197.267C285.929 197.777 282.267 198.133 277.693 198.383C276.671 198.443 275.867 197.904 275.19 197.173C273.509 195.358 271.806 193.55 270.082 191.749C269.065 190.685 267.884 189.773 266.538 189.012C262.484 186.726 258.972 185.019 256 183.889C252.062 182.397 247.916 180.842 243.562 179.225C243.384 179.159 243.209 179.088 243.038 179.013C242.097 180.115 240.698 180.814 239.136 180.814ZM87.8023 154.453C85.3264 153.662 83.1046 152.839 81.1368 151.985C80.7452 151.817 80.3619 151.616 79.9868 151.383C79.9329 151.348 79.8725 151.325 79.8094 151.315C79.7463 151.305 79.6818 151.308 79.6199 151.324C79.5579 151.339 79.4999 151.368 79.4492 151.407C79.3986 151.446 79.3564 151.495 79.3254 151.551C78.6442 152.759 77.6686 153.609 76.3985 154.1C76.2076 154.172 76.1369 154.307 76.1863 154.505L79.0272 165.513C79.3638 165.443 79.7125 165.406 80.0698 165.406C81.4927 165.406 82.7804 165.986 83.7099 166.923C85.4625 164.332 87.2536 161.702 89.083 159.032C88.2572 157.951 87.7665 156.6 87.7665 155.135C87.7665 154.905 87.7787 154.677 87.8023 154.453ZM90.7034 160.53C88.7529 163.464 86.8316 166.261 84.9396 168.92C85.1091 169.43 85.201 169.975 85.201 170.542C85.201 173.379 82.9037 175.678 80.0698 175.678C79.5305 175.678 79.0105 175.595 78.5222 175.44C78.3084 175.512 78.0986 175.613 77.894 175.752C76.183 176.925 74.3946 178.173 72.5289 179.497C72.4187 179.575 72.3157 179.654 72.2197 179.734C72.3195 180.076 72.373 180.439 72.373 180.814C72.373 181.658 72.1015 182.439 71.6411 183.074C71.729 183.221 71.8293 183.369 71.9415 183.518C71.9942 183.588 72.0468 183.657 72.0994 183.727L72.2188 183.885C72.8849 184.769 73.5603 185.665 74.4489 186.359C74.799 186.634 75.1095 186.929 75.3803 187.245C76.2864 186.439 77.4796 185.95 78.787 185.95C81.4616 185.95 83.6582 187.998 83.8967 190.612C84.423 190.726 84.9496 190.839 85.4763 190.952L85.4961 190.956C88.0387 191.5 90.5829 192.044 93.106 192.737C94.7348 193.188 96.3356 193.616 97.9085 194.021C98.0894 194.067 98.2112 194.001 98.2737 193.824C99.2049 191.08 100.947 189.185 103.501 188.137C103.886 187.983 104.017 187.706 103.896 187.307L99.7051 173.796C99.6458 173.608 99.5356 173.571 99.3744 173.682C97.3441 175.102 95.3813 176.495 93.486 177.862C92.7259 178.412 91.9708 178.453 91.2205 177.985C91.1918 177.967 91.1671 177.943 91.1481 177.915C91.129 177.887 91.116 177.856 91.11 177.823L91.1081 177.811L91.1072 177.803C91.1062 177.793 91.1059 177.782 91.1062 177.772C91.1068 177.756 91.109 177.739 91.1129 177.723C91.1209 177.691 91.1357 177.661 91.1564 177.635C92.576 175.849 94.2294 174.701 95.9432 173.511C96.6187 173.042 97.3037 172.566 97.9874 172.042C98.5336 171.624 98.7179 171.082 98.5402 170.417C97.8591 167.855 97.1368 165.238 96.3734 162.567C96.2459 162.121 96.1181 161.697 95.9899 161.296C95.416 161.464 94.8088 161.555 94.1805 161.555C92.8989 161.555 91.7052 161.178 90.7034 160.53ZM97.8892 160.373C98.7513 163.489 99.702 166.679 100.742 169.943C100.747 169.96 100.754 169.977 100.763 169.993C100.775 170.014 100.79 170.034 100.808 170.052C100.838 170.083 100.875 170.106 100.915 170.119C100.92 170.121 100.924 170.122 100.929 170.123L100.94 170.126C100.95 170.128 100.96 170.13 100.97 170.131C100.994 170.134 101.017 170.133 101.041 170.13C101.083 170.123 101.122 170.106 101.156 170.081C107.013 165.829 112.982 161.451 119.063 156.945C120.758 155.69 122.442 154.587 124.117 153.635C124.249 153.56 124.349 153.453 124.418 153.314C124.543 153.061 124.519 152.815 124.344 152.578C123.944 152.05 122.943 152.138 122.355 152.232C114.864 153.451 107.609 154.476 100.592 155.307C100.537 157.399 99.4827 159.241 97.8892 160.373ZM61.6326 184.645C62.5412 184.136 63.4488 183.611 64.3553 183.069C64.5939 182.926 64.8517 182.748 65.0846 182.542C64.8234 182.022 64.6763 181.435 64.6763 180.814C64.6763 178.884 66.0947 177.285 67.9452 177.005C68.7202 170.146 69.6344 163.339 70.6879 156.585C70.7438 156.229 70.6895 155.9 70.525 155.597C70.4974 155.545 70.4564 155.501 70.4063 155.471C70.3562 155.44 70.2988 155.424 70.2402 155.424C70.1815 155.423 70.1238 155.438 70.0732 155.468C70.0226 155.498 69.9808 155.54 69.9524 155.592C69.1133 157.12 68.3401 158.801 67.6326 160.636C64.7397 168.13 62.3863 175.895 60.5726 183.93C60.956 184.124 61.3118 184.365 61.6326 184.645ZM74.9386 170.542C74.9386 171.947 75.5017 173.219 76.4142 174.146L76.4034 174.152C74.5377 175.092 72.7259 176.32 70.9682 177.838C70.7468 177.656 70.5047 177.497 70.2459 177.368C70.2775 176.914 70.3212 176.466 70.3769 176.024C71.1304 170 71.8987 163.942 72.6819 157.849C72.7905 156.986 73.0438 156.203 73.442 155.498C73.477 155.433 73.5305 155.38 73.5955 155.346C73.6606 155.312 73.7344 155.298 73.8074 155.306C73.8804 155.314 73.9495 155.344 74.0057 155.391C74.0619 155.438 74.1028 155.501 74.1231 155.572C75.2603 159.415 76.2356 163.021 77.0489 166.39C75.7698 167.324 74.9386 168.836 74.9386 170.542ZM110.756 188.3C110.812 188.324 110.874 188.325 110.93 188.305C110.987 188.285 111.034 188.245 111.062 188.192C111.19 187.955 111.321 187.718 111.451 187.482C111.862 186.741 112.272 186.001 112.582 185.218C113.294 183.416 114.166 181.749 115.029 180.099L115.03 180.097C115.681 178.852 116.328 177.617 116.896 176.34C117.624 174.707 118.438 173.147 119.253 171.584C119.881 170.381 120.509 169.176 121.101 167.932C122.474 165.047 123.831 162.35 125.173 159.84C125.67 158.915 126.101 157.884 126.467 156.748C126.71 156 126.513 155.45 125.874 155.098C125.72 155.012 125.567 155.017 125.415 155.112C124.892 155.448 124.384 155.802 123.89 156.175C116.71 161.602 109.442 166.898 102.084 172.062C101.752 172.296 101.643 172.609 101.758 173.001L105.791 186.675C105.854 186.891 105.984 187.08 106.162 187.217C106.34 187.354 106.558 187.431 106.783 187.436C108.086 187.466 109.41 187.754 110.756 188.3ZM144.209 278.393C144.209 282.648 140.763 286.097 136.513 286.097C132.262 286.097 128.816 282.648 128.816 278.393C128.816 274.139 132.262 270.69 136.513 270.69C140.763 270.69 144.209 274.139 144.209 278.393Z" fill="white"/>
<path d="M234.019 175.291C234.01 175.419 234.005 175.548 234.005 175.678C234.005 176.227 234.091 176.756 234.25 177.251C232.351 178.222 230.52 179.096 228.755 179.873C224.691 181.664 220.629 183.451 216.569 185.233C211.883 187.288 207.373 190 203.04 193.369C202.83 193.531 202.504 193.57 202.156 193.612C201.647 193.672 201.09 193.739 200.779 194.204C200.359 194.833 200.527 195.326 200.703 195.84C200.808 196.147 200.916 196.462 200.903 196.817L200.794 201.046C200.787 201.329 200.641 201.471 200.355 201.471C198.946 201.478 197.436 201.476 195.824 201.466C193.252 201.451 191.964 199.416 191.811 197.035L191.805 196.947C191.649 194.558 191.471 191.844 191.9 189.54C192.758 184.949 196.316 184.083 200.111 183.159C200.902 182.967 201.703 182.772 202.492 182.54C203.943 182.115 205.823 181.518 206.411 179.927C207.107 178.05 206.643 176.657 205.157 175.303C202.033 172.452 201.633 168.318 202.571 164.197C202.614 164.006 202.73 163.931 202.921 163.97C203.714 164.138 204.542 164.397 205.404 164.746C208.984 166.189 212.743 167.549 216.576 168.936L216.584 168.939H216.585C219.349 169.939 222.152 170.953 224.954 172.023C227.933 173.158 230.955 174.248 234.019 175.291Z" fill="white"/>
<path d="M280.185 116.617C283.143 116.617 285.711 118.287 287 120.736C289.021 120.243 291.076 119.735 293.166 119.212C304.943 116.275 316.254 113.729 327.1 111.575C328.899 111.216 330.745 110.906 332.637 110.646C333.289 110.554 333.368 110.725 332.874 111.16C331.823 112.089 330.875 112.642 329.444 112.958C326.952 113.505 324.462 114.047 321.973 114.589L321.924 114.599C310.478 117.09 299.061 119.574 287.672 122.523C287.809 123.1 287.882 123.702 287.882 124.32C287.882 127.728 285.672 130.619 282.608 131.635C284.482 135.188 286.401 138.889 288.364 142.737C289 142.453 289.706 142.296 290.448 142.296C293.281 142.296 295.579 144.595 295.579 147.431C295.579 149.349 294.529 151.021 292.973 151.903C294.779 155.182 296.646 158.414 298.576 161.599C299.047 162.379 299.655 163.229 300.402 164.148C300.456 164.215 300.524 164.269 300.599 164.307C300.675 164.346 300.758 164.367 300.841 164.37C300.906 164.373 300.968 164.375 301.029 164.377C301.094 164.379 301.156 164.38 301.217 164.381C301.726 164.393 302.137 164.402 302.697 164.622C310.302 167.593 317.684 170.406 324.844 173.06C325.209 173.195 325.543 173.376 325.846 173.603C326.162 173.841 326.366 173.766 326.458 173.381C327.577 168.648 328.482 158.66 328.482 158.66C328.482 158.66 328.546 156.748 328.931 155.777C329.626 154.035 331.255 153.791 332.83 153.555L332.855 153.551C332.855 153.551 332.19 154.567 332.065 154.959C331.854 155.618 331.742 156.013 331.729 156.145C331.696 156.502 331.685 156.844 331.674 157.183V157.185C331.655 157.763 331.636 158.331 331.512 158.941C330.492 163.917 329.441 168.947 328.358 174.028C328.349 174.073 328.356 174.12 328.378 174.161C328.401 174.201 328.438 174.231 328.482 174.246C332.588 175.695 336.668 177.218 340.722 178.815C342.897 179.672 345.085 180.5 347.287 181.3C352.094 183.046 356.916 184.806 361.753 186.581C362.326 186.792 362.971 187.079 363.688 187.441C364.113 187.655 364.322 188.001 364.315 188.478L364.305 188.844C364.299 189.371 364.047 189.542 363.55 189.358L328.432 176.212C328.153 176.11 327.981 176.204 327.919 176.493C326.928 181.141 325.943 185.702 324.962 190.178C324.595 191.849 324.16 193.485 323.725 195.115C323.266 196.84 322.808 198.558 322.435 200.305C322.4 200.471 322.43 200.645 322.521 200.789C322.611 200.933 322.754 201.036 322.919 201.076C325.699 201.721 328.419 202.342 331.078 202.938C334.813 203.775 338.998 204.936 343.634 206.421C345.645 207.066 348.04 207.727 350.821 208.402C350.913 208.425 352.736 209.158 352.538 209.276L352.153 209.504C352.016 209.584 351.857 209.618 351.7 209.601C351.543 209.584 351.395 209.517 351.28 209.41C350.848 209.008 350.351 208.973 349.839 208.937C349.584 208.919 349.325 208.901 349.069 208.837C346.775 208.257 344.503 207.766 342.252 207.365C337.68 206.551 333.158 205.452 328.699 204.368L328.697 204.367H328.695L328.688 204.365L328.659 204.358H328.657L328.648 204.355C327.093 203.977 325.545 203.601 324.005 203.239C323.192 203.048 322.346 202.956 321.468 202.963C321.287 202.966 321.14 203.039 321.029 203.18C320.637 203.691 320.354 204.236 320.18 204.815C318.238 211.257 315.843 217.89 312.993 224.714C312.701 225.415 312.339 226.111 311.974 226.811C311.594 227.541 311.21 228.278 310.9 229.032C309.563 232.282 308.212 235.482 306.85 238.63C310.432 238.909 313.602 240.661 315.754 243.281C318.343 241.969 325.089 238.596 329 237.065C334.982 234.723 340.934 232.426 347.228 230.761C348.491 230.425 349.713 230.03 350.895 229.575C352.302 229.03 353.487 228.833 355.171 228.552L355.176 228.551L355.186 228.549L355.204 228.546C355.727 228.459 356.299 228.363 356.941 228.247C361.775 227.364 366.885 226.661 372.271 226.137C374.358 225.933 376.222 226.056 377.864 226.508C378.851 226.778 379.713 226.802 380.45 226.582C382.582 225.944 383.52 223.356 382.612 221.355C381.565 219.043 379.206 218.944 377.113 219.987C376.702 220.191 376.585 220.082 376.763 219.661C376.901 219.315 376.965 218.752 376.965 218.366C376.959 212.016 376.679 205.596 376.126 199.105C376.116 198.992 376.145 198.879 376.208 198.784C376.27 198.689 376.363 198.617 376.472 198.581C381.99 196.718 384.576 190.859 381.995 185.573C380.672 182.866 378.449 181.104 375.327 180.287C374.864 180.164 374.372 180.139 373.879 180.114H373.877C373.519 180.095 373.16 180.077 372.809 180.021C372.589 179.984 372.454 179.856 372.405 179.635C371.266 174.557 370.281 170.585 369.448 167.72C368.494 164.433 367.665 161.314 366.961 158.363C366.94 158.281 366.952 158.195 366.993 158.121C367.035 158.048 367.102 157.993 367.183 157.968C369.547 157.212 371.097 155.216 370.297 152.726C369.113 149.026 366.077 148.927 362.898 150.207C362.648 150.309 362.464 150.238 362.346 149.994C357.68 140.094 352.109 130.698 345.633 121.806C345.401 121.495 345.184 120.749 345.233 120.284C345.525 117.399 345.678 113.912 344.108 111.313C342.41 108.502 339.612 107.445 336.403 108.052C335.89 108.151 335.397 108.186 334.923 108.156C334.745 108.146 334.602 108.071 334.493 107.929C333.434 106.572 332.279 105.355 331.028 104.278C328.021 101.686 325.16 99.2129 322.445 96.8581C321.057 95.6542 319.469 94.4173 317.966 93.2467L317.965 93.2456C317.323 92.7456 316.696 92.2576 316.108 91.7895C310.284 87.2412 304.979 83.5591 300.195 80.7433C291.399 75.566 281.401 71.1527 270.2 67.5036C267.931 66.7659 265.587 66.1935 263.256 65.6239C262.028 65.3239 260.803 65.0247 259.593 64.7026C256.668 63.922 253.723 63.2683 250.758 62.7413C250.564 62.7084 250.367 62.7018 250.166 62.7215C250.121 62.7254 250.078 62.7397 250.039 62.7633C250.001 62.7869 249.968 62.8191 249.944 62.8575C249.931 62.8786 249.921 62.9013 249.913 62.9249C249.91 62.9349 249.907 62.9452 249.905 62.9556C249.904 62.965 249.902 62.9746 249.901 62.9842V62.9926L249.9 63.0028C249.9 63.0141 249.9 63.0254 249.901 63.0366C249.903 63.064 249.909 63.091 249.919 63.1168C250.248 63.9796 250.596 64.8129 250.961 65.6165C254.524 73.4285 258.501 81.7214 262.891 90.4952C263.248 91.2122 263.58 91.9475 263.912 92.6812L263.914 92.6836C264.462 93.8951 265.008 95.1025 265.659 96.2158C265.742 96.3509 265.859 96.4398 266.01 96.4826C271.607 98.0009 277.028 99.5011 282.273 100.983C283.122 101.224 283.996 101.326 284.894 101.289C284.986 101.286 285.032 101.331 285.032 101.423L285.003 103.157C285.003 103.272 284.948 103.31 284.84 103.27C283.984 102.964 283.222 102.739 282.555 102.594C279.172 101.849 275.862 101.082 272.624 100.291C270.508 99.7777 268.79 99.1783 267.471 98.4933C267.287 98.3978 267.214 98.4521 267.254 98.6563C267.573 100.349 268.108 102.012 268.858 103.646C271.162 108.647 273.367 113.508 275.474 118.228C276.776 117.218 278.41 116.617 280.185 116.617Z" fill="white"/>
<path d="M228.607 69.3364C227.158 72.7553 226.555 75.7529 225.961 78.704C225.61 80.4538 225.261 82.1885 224.741 83.9837C225.691 84.685 226.308 85.8135 226.308 87.0861C226.308 87.2737 226.295 87.4581 226.269 87.6385C226.924 87.8549 227.598 88.0297 228.256 88.1733C229.125 88.3606 229.992 88.5453 230.857 88.7297C234.394 89.4832 237.9 90.2304 241.41 91.1275C243.825 91.7414 246.24 92.2808 248.66 92.8214C251.187 93.3859 253.72 93.9518 256.267 94.6054C258.56 95.1949 260.865 95.712 263.182 96.1566C263.402 96.1994 263.463 96.1204 263.364 95.9194C260.238 89.5038 257.01 82.8313 253.68 75.9019C251.844 72.0815 249.89 67.9169 247.817 63.4082C247.642 63.0262 247.386 62.6804 247.047 62.3708C246.925 62.2555 246.782 62.1864 246.617 62.1633C242.165 61.531 237.74 61.1259 233.34 60.948C233.272 60.9453 233.203 60.9575 233.14 60.9838C233.076 61.0102 233.02 61.0499 232.974 61.1004C232.952 61.1241 232.933 61.1499 232.917 61.1774C232.898 61.2083 232.873 61.2756 232.873 61.2756C232.873 61.2756 229.997 66.0571 228.607 69.3364Z" fill="white"/>
<path d="M299.752 262.734C298.901 264.305 298.112 265.835 297.386 267.323C294.501 273.238 291.84 278.979 289.405 284.545C286.378 291.45 283.154 298.297 279.942 305.119C278.99 307.14 278.04 309.159 277.096 311.177C276.905 311.582 277.007 311.678 277.402 311.464C284.259 307.706 291.401 303.923 298.828 300.116C302.761 298.102 306.527 296.081 310.305 294.053C312.324 292.969 314.347 291.884 316.402 290.796C316.207 290.119 316.103 289.404 316.103 288.665C316.103 285.667 317.814 283.07 320.311 281.796C318.174 274.962 316.123 268.098 314.159 261.205C311.919 263.116 309.015 264.27 305.841 264.27C303.638 264.27 301.564 263.714 299.752 262.734Z" fill="white"/>
<path d="M321.473 279.031C319.505 272.438 317.594 265.96 315.74 259.597C317.57 257.378 318.669 254.532 318.669 251.43C318.669 249.097 318.047 246.91 316.961 245.024C320.272 243.037 323.809 241.453 327.514 239.92C336.79 236.083 345.757 233.106 354.414 230.988C361.354 229.296 368.55 228.35 376.003 228.153C376.276 228.146 376.398 228.278 376.368 228.548C376 231.97 375.646 235.141 375.307 238.063C375.248 238.576 375.024 238.988 374.636 239.298C373.688 240.049 372.767 240.852 371.872 241.709C368.513 244.917 364.995 248.047 361.574 251.092L361.571 251.094L361.569 251.096C359.813 252.658 358.083 254.198 356.413 255.714C355.186 256.825 353.962 257.921 352.74 259.017L352.728 259.027C350.184 261.307 347.642 263.584 345.071 265.994C342.613 268.303 340.128 270.585 337.618 272.841C334.08 276.023 331.021 278.97 327.818 282.093C326.648 281.375 325.273 280.961 323.8 280.961C323.224 280.961 322.662 281.024 322.122 281.145C322.016 280.81 321.912 280.475 321.809 280.14C321.695 279.771 321.583 279.401 321.473 279.031Z" fill="white"/>
<path d="M268.193 319.722C262.04 322.524 256.036 325.304 250.179 328.063C250.504 328.993 250.681 329.993 250.681 331.035C250.681 333.362 249.797 335.482 248.348 337.078C248.463 337.157 248.578 337.235 248.693 337.314C248.766 337.364 248.838 337.413 248.91 337.463C249.052 337.561 249.194 337.66 249.335 337.759C249.585 337.933 249.835 338.109 250.084 338.284L250.085 338.285L250.087 338.286C251.088 338.99 252.091 339.695 253.133 340.349C254.715 341.343 256.211 342.366 257.619 343.417C261.958 346.647 266.119 349.577 270.427 352.561C271.579 353.36 272.721 354.209 273.873 355.066C276.133 356.747 278.431 358.455 280.906 359.862C280.954 359.889 281.005 359.911 281.058 359.926C281.114 359.943 281.173 359.954 281.232 359.957C281.346 359.964 281.461 359.945 281.567 359.902C291.9 355.663 301.664 350.293 310.861 343.792C311.243 343.522 311.475 343.184 311.557 342.779C312.281 339.259 313.283 334.842 314.563 329.53C314.641 329.213 314.677 328.935 314.715 328.64C314.745 328.412 314.776 328.172 314.829 327.895C315.018 326.911 315.216 326.433 315.442 325.886C315.729 325.194 316.06 324.393 316.473 322.317C318.176 313.781 319.784 304.993 321.299 295.953C319.622 295.376 318.206 294.236 317.279 292.758C310.928 296.128 304.486 299.493 297.954 302.853C290.468 306.703 283.486 310.405 277.007 313.958C276.936 313.997 276.862 314.037 276.783 314.079L276.773 314.085C277.308 314.896 277.62 315.867 277.62 316.911C277.62 319.748 275.322 322.047 272.489 322.047C270.691 322.047 269.109 321.122 268.193 319.722Z" fill="white"/>
<path d="M323.235 296.348C321.892 304.962 320.145 314.472 317.993 324.876C317.958 325.043 317.983 325.216 318.062 325.367C318.141 325.518 318.27 325.636 318.427 325.701L327.287 329.436C327.563 329.552 327.867 329.585 328.16 329.532C328.454 329.478 328.725 329.34 328.941 329.135C330.991 327.188 333.044 325.283 335.1 323.419C335.318 323.224 335.489 322.994 335.614 322.727C335.693 322.559 335.819 322.441 335.994 322.371C336.303 322.251 336.43 322.032 336.566 321.796C336.648 321.655 336.733 321.508 336.862 321.374C349.004 308.681 358.504 294.196 365.361 277.92C366.53 275.146 367.602 272.129 368.666 269.134L368.667 269.132C369.05 268.053 369.433 266.976 369.818 265.915C369.887 265.718 370.027 265.632 370.238 265.658C372.364 265.905 374.45 265.336 376.496 263.949C378.949 262.299 380.119 258.777 379.28 256.015C378.382 253.051 376.455 251.124 373.5 250.235C373.392 250.201 373.299 250.128 373.241 250.03C373.183 249.933 373.163 249.818 373.185 249.707L374.483 243.107C374.614 242.428 374.425 242.321 373.915 242.785C368.584 247.66 363.168 252.508 357.667 257.329C352.417 261.932 347.26 266.672 342.119 271.398L342.112 271.405C339.817 273.514 337.525 275.621 335.229 277.712C333.711 279.096 332.229 280.544 330.738 282.001C330.281 282.447 329.823 282.894 329.363 283.341C330.685 284.724 331.497 286.599 331.497 288.665C331.497 290.818 330.615 292.764 329.192 294.162C333.36 297.325 337.894 300.808 342.795 304.612C343.075 304.829 343.096 305.069 342.859 305.333L342.228 306.02C342.126 306.13 341.987 306.199 341.838 306.213C341.69 306.226 341.541 306.184 341.423 306.094L327.51 295.416C326.41 296.023 325.145 296.368 323.8 296.368C323.731 296.368 323.663 296.367 323.595 296.366C323.474 296.363 323.354 296.357 323.235 296.348Z" fill="white"/>
<path d="M241.702 340.022C243.654 340.022 245.461 339.399 246.934 338.34C249.287 340.085 251.701 341.776 254.117 343.469L254.144 343.488L254.15 343.492C255.738 344.604 257.326 345.717 258.898 346.845C265.465 351.561 271.964 356.128 278.394 360.544C278.571 360.669 278.581 360.806 278.423 360.954C278.186 361.178 277.907 361.349 277.584 361.468C263.3 366.665 248.376 369.698 232.812 370.568C232.8 370.568 232.787 370.568 232.775 370.568C232.762 370.567 232.749 370.566 232.737 370.564C232.71 370.559 232.684 370.551 232.659 370.541C232.611 370.52 232.568 370.488 232.535 370.447C232.501 370.407 232.478 370.359 232.466 370.308C232.454 370.257 232.454 370.204 232.467 370.153C234.711 360.579 236.966 351.189 239.234 341.984C239.401 341.301 239.532 340.567 239.628 339.781C240.293 339.939 240.988 340.022 241.702 340.022Z" fill="white"/>
<path d="M96.6627 140.298C96.3204 143.049 98.2204 145.55 100.907 145.885C103.593 146.22 106.048 144.262 106.39 141.511C106.732 138.76 104.832 136.259 102.146 135.924C99.4601 135.589 97.005 137.547 96.6627 140.298Z" fill="white"/>
<path d="M301.532 166.509C305.55 173.956 309.596 181.44 313.669 188.962C314.238 190.011 314.79 191.065 315.341 192.117L315.342 192.121C316.628 194.577 317.91 197.025 319.385 199.376C319.576 199.679 319.819 199.808 320.116 199.762C320.202 199.748 320.282 199.711 320.349 199.654C320.415 199.598 320.464 199.524 320.491 199.441C321.399 196.69 322.159 193.886 322.771 191.027C323.538 187.422 324.408 183.859 325.259 180.37L325.26 180.366C325.607 178.942 325.952 177.53 326.285 176.133C326.384 175.721 326.234 175.441 325.836 175.293C320.216 173.192 314.583 171.092 308.936 168.994C306.511 168.092 304.155 167.14 301.868 166.139C301.401 165.935 301.289 166.058 301.532 166.509Z" fill="white"/>
<path d="M79.3155 302.611C79.3694 302.464 79.3899 302.307 79.3753 302.151C79.3608 301.994 79.3117 301.843 79.2316 301.707L68.1706 283.097C68.0587 282.913 67.8959 282.819 67.682 282.816C65.3951 282.786 64.2451 281.653 64.2319 279.417C64.2171 276.586 68.4125 275.287 69.834 277.777C70.6072 279.127 70.5118 280.438 69.5477 281.709C69.4545 281.834 69.401 281.984 69.394 282.14C69.3869 282.296 69.4267 282.45 69.5082 282.583C72.9632 288.202 76.3179 293.911 79.5722 299.711C80.0559 300.574 80.5626 301.193 81.0924 301.568C81.3857 301.776 81.6979 301.966 82.0113 302.156C82.7106 302.58 83.4158 303.008 83.9304 303.653C86.7537 307.19 81.0973 311.444 78.6294 307.605C78.0766 306.746 77.9088 305.792 78.126 304.745C78.2303 304.242 78.4917 303.894 78.7559 303.542C78.9669 303.261 79.1796 302.977 79.3155 302.611Z" fill="white"/>
<path d="M317.998 327.588L326.507 331.318C326.551 331.336 326.588 331.366 326.616 331.404C326.621 331.411 326.626 331.418 326.63 331.426C326.634 331.432 326.638 331.439 326.641 331.446C326.647 331.458 326.652 331.471 326.656 331.484C326.658 331.491 326.66 331.499 326.662 331.506C326.664 331.515 326.665 331.524 326.666 331.533C326.668 331.55 326.668 331.567 326.667 331.583C326.664 331.614 326.657 331.644 326.644 331.672C326.636 331.69 326.627 331.707 326.615 331.723C326.599 331.745 326.579 331.766 326.557 331.782C325.728 332.391 324.962 333.069 324.196 333.748C323.502 334.363 322.807 334.978 322.065 335.542C319.545 337.459 317.024 339.349 314.504 341.213C314.201 341.437 314.082 341.365 314.148 340.996C314.714 337.847 315.331 334.621 315.999 331.318C316.21 330.284 316.567 329.164 317.07 327.959C317.105 327.873 317.158 327.795 317.224 327.73C317.29 327.665 317.368 327.613 317.455 327.579C317.472 327.572 317.49 327.565 317.508 327.56C317.524 327.555 317.54 327.551 317.556 327.547C317.568 327.544 317.58 327.542 317.592 327.539C317.637 327.532 317.682 327.528 317.727 327.529C317.82 327.531 317.913 327.551 317.998 327.588Z" fill="white"/>
</svg>
