<?xml version="1.0" encoding="UTF-8"?>
<svg xmlns="http://www.w3.org/2000/svg" baseProfile="tiny" version="1.2" viewBox="0 0 1366 768">
  <!-- Generator: Adobe Illustrator 28.6.0, SVG Export Plug-In . SVG Version: 1.2.0 Build 709)  -->
  <g>
    <g id="Layer_1">
      <path d="M790.84,310.77l-8.23-4.75s-.04-.03-.06-.04l-90.25-52.11c-2.87-1.64-6.07-2.46-9.28-2.46,0,0-.01,0-.02,0-3.21,0-6.42.82-9.3,2.47l-98.54,56.91c-5.75,3.29-9.28,9.43-9.28,16.1v113.75c0,6.64,3.53,12.81,9.28,16.13l8.23,4.75s.04.03.06.04l90.25,52.11c5.75,3.29,12.84,3.29,18.59,0l98.54-56.91c5.75-3.29,9.28-9.43,9.28-16.1v-113.75c0-6.64-3.53-12.81-9.28-16.13ZM692.75,292.72l64.22,37.12c3.02,1.73,5.46,4.2,7.15,7.1,1.67,2.91,2.59,6.25,2.59,9.72v36.58c-46.41-6.09-82.43-45.31-83.62-93.14,3.34,0,6.65.92,9.66,2.62ZM683.09,477.43c.76-31.01,16.21-58.32,39.59-75.42,12.69-9.27,27.69-15.57,44.03-17.72v36.54c0,6.96-3.68,13.38-9.74,16.85l-64.22,37.12c-2.95,1.71-6.31,2.59-9.66,2.63ZM643.32,365.51c-12.69,9.27-27.69,15.57-44.03,17.72v-36.54c0-6.96,3.68-13.38,9.74-16.85l64.22-37.12c2.95-1.71,6.31-2.59,9.66-2.63-.76,31.01-16.21,58.32-39.59,75.42ZM599.29,420.86v-36.58c46.41,6.09,82.43,45.31,83.62,93.14-3.34,0-6.65-.92-9.66-2.62l-64.22-37.12c-3.02-1.73-5.46-4.2-7.15-7.1-1.67-2.91-2.59-6.25-2.59-9.72Z" fill="#1d1d1b"/>
    </g>
  </g>
</svg>