<svg width="766" height="766" viewBox="0 0 766 766" fill="none" xmlns="http://www.w3.org/2000/svg">
<path d="M586.291 34.3732C586.291 129.264 538.846 176.709 443.955 176.709C538.846 176.709 586.291 224.154 586.291 319.045C586.291 224.154 633.736 176.709 728.627 176.709C633.736 176.709 586.291 129.264 586.291 34.3732Z" fill="#D9D9D9"/>
<path d="M386.687 393.189V494.459C386.687 503.777 394.245 511.335 403.563 511.335H504.834C514.213 511.335 521.71 518.894 521.71 528.211V629.482C521.71 638.8 514.213 646.358 504.834 646.358H403.563C394.245 646.358 386.687 638.8 386.687 629.482V528.211C386.687 518.894 379.19 511.335 369.811 511.335H268.541C259.223 511.335 251.665 518.894 251.665 528.211V629.482C251.665 638.8 244.168 646.358 234.789 646.358H133.503C124.185 646.358 116.627 638.8 116.627 629.482V258.136C116.627 248.818 124.185 241.26 133.503 241.26H234.773C244.152 241.26 251.649 248.818 251.649 258.136V359.406C251.649 368.724 259.208 376.282 268.525 376.282H369.796C379.175 376.282 386.672 368.724 386.672 359.406V258.136C386.672 248.818 394.23 241.26 403.548 241.26H504.818C514.197 241.26 521.694 248.818 521.694 258.136V359.406C521.694 368.724 514.197 376.282 504.818 376.282H403.548C394.23 376.282 386.672 383.84 386.672 393.158L386.687 393.189Z" fill="#D9D9D9"/>
</svg>
