<?xml version="1.0" encoding="UTF-8"?>
<svg xmlns="http://www.w3.org/2000/svg" baseProfile="tiny" version="1.2" viewBox="0 0 400 400">
  <!-- Generator: Adobe Illustrator 28.6.0, SVG Export Plug-In . SVG Version: 1.2.0 Build 709)  -->
  <g>
    <g id="Layer_1">
      <path d="M306.97,0c0,62.02-31.01,93.03-93.03,93.03,62.02,0,93.03,31.01,93.03,93.03,0-62.02,31.01-93.03,93.03-93.03-62.02,0-93.03-31.01-93.03-93.03Z"/>
      <path d="M176.51,234.52v66.19c0,6.09,4.94,11.03,11.03,11.03h66.19c6.13,0,11.03,4.94,11.03,11.03v66.19c0,6.09-4.9,11.03-11.03,11.03h-66.19c-6.09,0-11.03-4.94-11.03-11.03v-66.19c0-6.09-4.9-11.03-11.03-11.03h-66.19c-6.09,0-11.03,4.94-11.03,11.03v66.19c0,6.09-4.9,11.03-11.03,11.03H11.03c-6.09,0-11.03-4.94-11.03-11.03v-242.71c0-6.09,4.94-11.03,11.03-11.03h66.19c6.13,0,11.03,4.94,11.03,11.03v66.19c0,6.09,4.94,11.03,11.03,11.03h66.19c6.13,0,11.03-4.94,11.03-11.03v-66.19c0-6.09,4.94-11.03,11.03-11.03h66.19c6.13,0,11.03,4.94,11.03,11.03v66.19c0,6.09-4.9,11.03-11.03,11.03h-66.19c-6.09,0-11.03,4.94-11.03,11.03Z"/>
    </g>
  </g>
</svg>